%TF.GenerationSoftware,KiCad,Pcbnew,9.0.4*%
%TF.CreationDate,2025-11-26T19:26:54-05:00*%
%TF.ProjectId,CNC-BOT ESP32 - copia,434e432d-424f-4542-9045-53503332202d,rev?*%
%TF.SameCoordinates,Original*%
%TF.FileFunction,Soldermask,Bot*%
%TF.FilePolarity,Negative*%
%FSLAX46Y46*%
G04 Gerber Fmt 4.6, Leading zero omitted, Abs format (unit mm)*
G04 Created by KiCad (PCBNEW 9.0.4) date 2025-11-26 19:26:54*
%MOMM*%
%LPD*%
G01*
G04 APERTURE LIST*
G04 Aperture macros list*
%AMRoundRect*
0 Rectangle with rounded corners*
0 $1 Rounding radius*
0 $2 $3 $4 $5 $6 $7 $8 $9 X,Y pos of 4 corners*
0 Add a 4 corners polygon primitive as box body*
4,1,4,$2,$3,$4,$5,$6,$7,$8,$9,$2,$3,0*
0 Add four circle primitives for the rounded corners*
1,1,$1+$1,$2,$3*
1,1,$1+$1,$4,$5*
1,1,$1+$1,$6,$7*
1,1,$1+$1,$8,$9*
0 Add four rect primitives between the rounded corners*
20,1,$1+$1,$2,$3,$4,$5,0*
20,1,$1+$1,$4,$5,$6,$7,0*
20,1,$1+$1,$6,$7,$8,$9,0*
20,1,$1+$1,$8,$9,$2,$3,0*%
G04 Aperture macros list end*
%ADD10C,1.600000*%
%ADD11O,1.600000X1.600000*%
%ADD12C,2.200000*%
%ADD13R,1.700000X1.700000*%
%ADD14O,1.700000X1.700000*%
%ADD15R,1.800000X1.800000*%
%ADD16C,1.800000*%
%ADD17RoundRect,0.250000X0.750000X-0.750000X0.750000X0.750000X-0.750000X0.750000X-0.750000X-0.750000X0*%
%ADD18C,2.000000*%
%ADD19C,3.000000*%
%ADD20RoundRect,0.102000X1.000000X1.000000X-1.000000X1.000000X-1.000000X-1.000000X1.000000X-1.000000X0*%
%ADD21C,2.204000*%
%ADD22R,2.000000X2.000000*%
%ADD23R,3.500000X3.500000*%
%ADD24RoundRect,0.750000X1.000000X-0.750000X1.000000X0.750000X-1.000000X0.750000X-1.000000X-0.750000X0*%
%ADD25RoundRect,0.875000X0.875000X-0.875000X0.875000X0.875000X-0.875000X0.875000X-0.875000X-0.875000X0*%
G04 APERTURE END LIST*
D10*
%TO.C,R1*%
X183810000Y-113500000D03*
D11*
X176190000Y-113500000D03*
%TD*%
D12*
%TO.C,REF\u002A\u002A*%
X109000000Y-133500000D03*
%TD*%
D13*
%TO.C,J7*%
X124975000Y-103500000D03*
D14*
X127515000Y-103500000D03*
X130055000Y-103500000D03*
%TD*%
D15*
%TO.C,D2*%
X187625000Y-106250000D03*
D16*
X187625000Y-103710000D03*
%TD*%
D17*
%TO.C,C1*%
X115500000Y-101500000D03*
D18*
X115500000Y-96500000D03*
%TD*%
D19*
%TO.C,U1*%
X166530000Y-134475000D03*
X166530000Y-87525000D03*
X142020000Y-134475000D03*
X142020000Y-87525000D03*
D20*
X166950000Y-126515000D03*
D21*
X166950000Y-123975000D03*
X166950000Y-121435000D03*
X166950000Y-118895000D03*
X166950000Y-116355000D03*
X166950000Y-113815000D03*
X166950000Y-111275000D03*
X166950000Y-108735000D03*
X166950000Y-106195000D03*
X166950000Y-103655000D03*
X166950000Y-101115000D03*
X166950000Y-98575000D03*
X166950000Y-96035000D03*
X166950000Y-93495000D03*
X166950000Y-90955000D03*
X141550000Y-90955000D03*
X141550000Y-93495000D03*
X141550000Y-96035000D03*
X141550000Y-98575000D03*
X141550000Y-101115000D03*
X141550000Y-103655000D03*
X141550000Y-106195000D03*
X141550000Y-108735000D03*
X141550000Y-111275000D03*
X141550000Y-113815000D03*
X141550000Y-116355000D03*
X141550000Y-118895000D03*
X141550000Y-121435000D03*
X141550000Y-123975000D03*
X141550000Y-126515000D03*
%TD*%
D12*
%TO.C,*%
X189000000Y-86500000D03*
%TD*%
D10*
%TO.C,R2*%
X184120000Y-106190000D03*
D11*
X176500000Y-106190000D03*
%TD*%
D22*
%TO.C,C3*%
X120867677Y-126000000D03*
D18*
X115867677Y-126000000D03*
%TD*%
D13*
%TO.C,J5*%
X124960000Y-115500000D03*
D14*
X127500000Y-115500000D03*
X130040000Y-115500000D03*
%TD*%
D15*
%TO.C,D3*%
X187625000Y-98750000D03*
D16*
X187625000Y-96210000D03*
%TD*%
D15*
%TO.C,D1*%
X187625000Y-113750000D03*
D16*
X187625000Y-111210000D03*
%TD*%
D13*
%TO.C,J8*%
X124935000Y-99500000D03*
D14*
X127475000Y-99500000D03*
X130015000Y-99500000D03*
%TD*%
D13*
%TO.C,J6*%
X124975000Y-107500000D03*
D14*
X127515000Y-107500000D03*
X130055000Y-107500000D03*
%TD*%
D13*
%TO.C,J10*%
X124975000Y-119500000D03*
D14*
X127515000Y-119500000D03*
X130055000Y-119500000D03*
%TD*%
D10*
%TO.C,R3*%
X184000000Y-98690000D03*
D11*
X176380000Y-98690000D03*
%TD*%
D22*
%TO.C,C2*%
X115500000Y-108132323D03*
D18*
X115500000Y-113132323D03*
%TD*%
D23*
%TO.C,J2*%
X130542500Y-126500000D03*
D24*
X130542500Y-132500000D03*
D25*
X135242500Y-129500000D03*
%TD*%
D12*
%TO.C,*%
X109000000Y-86500000D03*
%TD*%
D13*
%TO.C,J9*%
X124975000Y-111500000D03*
D14*
X127515000Y-111500000D03*
X130055000Y-111500000D03*
%TD*%
D12*
%TO.C,REF\u002A\u002A*%
X189250000Y-133500000D03*
%TD*%
M02*
