M48
; DRILL file {KiCad 9.0.4} date 2025-11-26T19:24:58-0500
; FORMAT={-:-/ absolute / metric / decimal}
; #@! TF.CreationDate,2025-11-26T19:24:58-05:00
; #@! TF.GenerationSoftware,Kicad,Pcbnew,9.0.4
; #@! TF.FileFunction,Plated,1,2,PTH
FMAT,2
METRIC
; #@! TA.AperFunction,Plated,PTH,ComponentDrill
T1C0.800
; #@! TA.AperFunction,Plated,PTH,ComponentDrill
T2C0.900
; #@! TA.AperFunction,Plated,PTH,ComponentDrill
T3C1.000
; #@! TA.AperFunction,Plated,PTH,ComponentDrill
T4C1.020
%
G90
G05
T1
X176.19Y-113.5
X176.38Y-98.69
X176.5Y-106.19
X183.81Y-113.5
X184.0Y-98.69
X184.12Y-106.19
T2
X187.625Y-96.21
X187.625Y-98.75
X187.625Y-103.71
X187.625Y-106.25
X187.625Y-111.21
X187.625Y-113.75
T3
X115.5Y-96.5
X115.5Y-101.5
X115.5Y-108.132
X115.5Y-113.132
X115.868Y-126.0
X120.868Y-126.0
X124.935Y-99.5
X124.96Y-115.5
X124.975Y-103.5
X124.975Y-107.5
X124.975Y-111.5
X124.975Y-119.5
X127.475Y-99.5
X127.5Y-115.5
X127.515Y-103.5
X127.515Y-107.5
X127.515Y-111.5
X127.515Y-119.5
X130.015Y-99.5
X130.04Y-115.5
X130.055Y-103.5
X130.055Y-107.5
X130.055Y-111.5
X130.055Y-119.5
T4
X141.55Y-90.955
X141.55Y-93.495
X141.55Y-96.035
X141.55Y-98.575
X141.55Y-101.115
X141.55Y-103.655
X141.55Y-106.195
X141.55Y-108.735
X141.55Y-111.275
X141.55Y-113.815
X141.55Y-116.355
X141.55Y-118.895
X141.55Y-121.435
X141.55Y-123.975
X141.55Y-126.515
X166.95Y-90.955
X166.95Y-93.495
X166.95Y-96.035
X166.95Y-98.575
X166.95Y-101.115
X166.95Y-103.655
X166.95Y-106.195
X166.95Y-108.735
X166.95Y-111.275
X166.95Y-113.815
X166.95Y-116.355
X166.95Y-118.895
X166.95Y-121.435
X166.95Y-123.975
X166.95Y-126.515
T3
G00X129.542Y-126.5
M15
G01X131.542Y-126.5
M16
G05
G00X129.542Y-132.5
M15
G01X131.542Y-132.5
M16
G05
G00X135.243Y-130.5
M15
G01X135.243Y-128.5
M16
G05
M30
